<?xml version="1.0" encoding="utf-8"?>
<!-- Generator: Adobe Illustrator 16.0.0, SVG Export Plug-In . SVG Version: 6.00 Build 0)  -->
<!DOCTYPE svg PUBLIC "-//W3C//DTD SVG 1.1 Tiny//EN" "http://www.w3.org/Graphics/SVG/1.1/DTD/svg11-tiny.dtd">
<svg version="1.1" baseProfile="tiny" id="Capa_1" xmlns="http://www.w3.org/2000/svg" xmlns:xlink="http://www.w3.org/1999/xlink"
	 x="0px" y="0px" width="595.275px" height="595.276px" viewBox="0 0 595.275 595.276" xml:space="preserve">
<g>
	<path fill-rule="evenodd" fill="#fff" d="M316.086,280.803c3.591,1.946,6.444,3.553,9.356,5.042
		c38.494,19.877,61.485,51.638,69.479,93.727c8.532,44.95,1.651,87.434-25.486,125.24c-21.94,30.585-52.688,48.7-88.138,59.448
		c-22.815,6.909-46.251,10.226-70.078,10.266c-64.488,0.091-128.982,0.025-193.477,0.025c-1.638,0-3.277,0-5.511,0
		c-0.117-2.378-0.293-4.349-0.293-6.309C11.859,403.863,11.773,239.47,11.735,75.1c-0.007-30.181,26.582-56.999,56.651-57.057
		c49.11-0.111,98.24-0.862,147.33,0.203c40.857,0.894,79.267,11.335,111.895,37.539c26.7,21.437,42.393,49.313,47.328,83.231
		c5.485,37.716-1.195,72.807-22.385,104.816c-8.6,12.994-20.078,23.194-31.884,33.08
		C319.397,277.982,318.144,279.067,316.086,280.803z M120.097,479.189c0.959,0.274,1.312,0.473,1.651,0.473
		c33.334,0.011,66.701,0.978,99.978-0.304c25.426-0.965,45.976-12.588,57.494-36.408c8.541-17.67,10.187-36.553,6.7-55.778
		c-3.88-21.364-14.536-38.171-34.118-48.567c-11.847-6.282-24.624-8.854-37.938-8.895c-19.818-0.052-39.63-0.012-59.446-0.012
		c-21.679,0-34.308,11.976-34.51,33.85c-0.347,37.403-0.137,74.817-0.137,112.22C119.771,476.852,119.973,477.936,120.097,479.189z
		 M119.927,242.696c30.403,0,59.852,0.64,89.255-0.235c18.531-0.562,34.373-8.293,45.265-24.173
		c10.754-15.672,13.093-33.289,12.23-51.794c-1.405-30.246-24.755-54.422-54.929-55.683c-18.485-0.771-37.024-0.954-55.529-0.621
		c-24.787,0.457-36.339,12.818-36.299,37.55c0.045,29.266,0.007,58.532,0.007,87.798
		C119.927,237.72,119.927,239.888,119.927,242.696z"/>
	<path fill-rule="evenodd" fill="#fff" d="M518.783,581.028c-33.458,0.365-66.44-25.585-66.937-67.179
		c-0.438-37.232,30.369-67.374,67.099-67.231c36.986,0.132,66.938,30.26,66.982,67.377
		C585.974,550.925,555.756,581.092,518.783,581.028z"/>
</g>
</svg>
