<?xml version="1.0" encoding="utf-8"?>
<!-- Generator: Adobe Illustrator 21.0.0, SVG Export Plug-In . SVG Version: 6.00 Build 0)  -->
<svg version="1.1" id="Kapten_x5F_Logo_x5F_Icon" xmlns="http://www.w3.org/2000/svg" xmlns:xlink="http://www.w3.org/1999/xlink"
	 x="0px" y="0px" viewBox="0 0 241.2 244.4" style="enable-background:new 0 0 241.2 244.4;" xml:space="preserve">
<style type="text/css">
	.st0{fill:#FFFFFF;}
	.st1{fill:#FF3354;}
</style>
<path id="Kapten_x5F_Logo_x5F_Icon_x5F_White_x5F_k" class="st0" d="M134.4,183.7l-30.5-42.2v41.4c0,0.8-0.5,1.3-1.3,1.3H76.2
	c-0.8,0-1.3-0.5-1.3-1.3V67.4c0-0.5,0.5-1.3,1.1-1.3l26.3-6.1c0.8-0.3,1.6,0.5,1.6,1.3v68.5l28.7-42c0.3-0.3,0.8-0.5,1.1-0.5h30.5
	c1.1,0,1.9,1.3,1.1,2.1l-33.7,46.2l34.5,46.2c0.8,0.8,0,2.1-1.1,2.1h-29.5C135.2,184.3,134.7,184,134.4,183.7"/>
<path id="Kapten_x5F_Logo_x5F_Icon_x5F_Passenger_x5F_Underscore" class="st1" d="M241.2,184.3h-52.3c-0.8,0-1.3,0.5-1.3,1.3v18.9
	c0,0.8,0.5,1.3,1.3,1.3h52.3V184.3z"/>
</svg>
