<?xml version="1.0" encoding="utf-8"?>
<!-- Generator: Adobe Illustrator 21.0.0, SVG Export Plug-In . SVG Version: 6.00 Build 0)  -->
<svg version="1.1" id="Calque_1" xmlns="http://www.w3.org/2000/svg" xmlns:xlink="http://www.w3.org/1999/xlink" x="0px" y="0px"
	 viewBox="0 0 2500 1818" style="enable-background:new 0 0 2500 1818;" xml:space="preserve">
<style type="text/css">
	.st0{fill:#FFFFFF;}
</style>
<path class="st0" d="M922.4,891.2c0,64-6.7,95.9-53.1,95.9c-48.5,0-56.1-29.1-56.1-87.1V389.2H436.9v599.9
	c0,104.4,25.1,190.3,84,257.9c58.9,67.5,131.7,101.2,222.6,101.2c61.5,0,123.2-18.9,187.3-56.7c-35.3,133.8-114.7,200.6-233.8,200.6
	c-37.3,0-72.9-10.5-131.7-31.4c0,0-55.6-17.7-128.5-60v311.7c0,0,72.5,45.4,128.5,66.5c68.6,26.1,136.2,39.1,204.2,39.1
	c155.1,0,284.8-59.4,394-178.1c91.6-99.8,134.9-231,134.9-393.4V389.2H922.4V891.2L922.4,891.2z M1775.3,4.6
	c-446.5,40.2-416.1,517.6-416.1,517.6v834.9c242.7,0,364.1-116.5,364.1-277.9v-109h179V607h-179v-48.6c0-56.8,15-100.4,40.2-131.1
	c24.7-30,60.7-45.2,105.6-45.9c29.9,0.3,85,10.3,96.1,53.4l0.8,3.4v378.5c0,139,26.2,250.6,82.5,334.8
	c44.5,65.9,102.5,118.1,176.1,156.6c73.6,38.5,151,57.6,234.1,57.6c9.2,0,25.8-0.3,41.2-1V980.2c-77,0-110-14.2-134.5-43.6
	c-24.6-29.4-36.4-87.5-36.4-160.1h131V389.2H2336c-23.4-145.2-110.6-364-434.1-388.4c0,0-38.3-1.4-68.3-0.4
	C1810.2,1.2,1775.3,4.6,1775.3,4.6L1775.3,4.6z M503.4,1326.8l0.3,0.6c-41.9,25.6-91,43.4-127.4,52.8v2l-1.3-1.8
	c-22.3,4.9-44.4,7.6-65.6,7.6c-91.7,0-165.2-34-224.5-102.1C25.5,1217.7,0.1,1131,0.1,1025.8V25.2h376.2v1000.6
	c0,105.3,25.1,192,84.5,260.1C473.7,1300.8,488,1314.5,503.4,1326.8L503.4,1326.8z"/>
</svg>
