<?xml version="1.0" encoding="utf-8"?>
<!-- Generator: Adobe Illustrator 21.0.0, SVG Export Plug-In . SVG Version: 6.00 Build 0)  -->
<svg version="1.1" id="layer" xmlns="http://www.w3.org/2000/svg" xmlns:xlink="http://www.w3.org/1999/xlink" x="0px" y="0px"
	 viewBox="0 0 652 652" style="enable-background:new 0 0 652 652;" xml:space="preserve">
<style type="text/css">
	.st0{fill:#FFFFFF;}
</style>
<g id="Page-1">
	<g id="Page-1-Copy-9" transform="translate(201.000000, 718.000000)">
		<path id="Fill-14" class="st0" d="M276.7-491.1c0,3.6-1,7.1-2.9,10.1c-0.1,0.1-0.2,0.2-0.3,0.4l-90.9,131.3L143.7-392L245-503.2
			c7.8-8.5,17.3-5.8,20-4.7C267.8-506.9,276.7-502.6,276.7-491.1L276.7-491.1z M276.7-292.8c0,11.5-8.9,15.8-11.6,16.9
			c-2.7,1-12.2,3.8-20-4.7L202-327.9l74.7-108V-292.8z M134.8-280.1c-2.3,3.3-5.9,5.2-10,5.2c-4.1,0-7.7-1.9-10-5.2l-31.4-45.5
			l41.4-45.5l41.4,45.5L134.8-280.1z M-23.8-480.6c-2.1-3.1-3.2-6.7-3.1-10.5c0-11.4,8.9-15.7,11.6-16.8c1.2-0.5,3.8-1.3,6.9-1.3
			c3.9,0,8.8,1.3,13.1,6L106-392l-38.9,42.7L-23.8-480.6z M4.6-280.7c-7.8,8.5-17.3,5.8-20,4.7c-2.7-1-11.6-5.4-11.6-16.9V-436
			l74.7,108L4.6-280.7z M275.1-534c-18-6.9-37.9-2.2-50.9,12l-99.4,109.2L25.4-521.9c-12.9-14.2-32.9-18.9-50.9-12
			c-16.3,6.2-27.3,20.6-29.2,37.5c-0.1,0.4-0.1,0.7-0.1,1.1c0,0.2,0,0.4,0,0.6c0,0.1,0,0.2,0,0.3c-0.1,1.1-0.1,2.3-0.1,3.4l0,0
			v198.2c0,19.2,11.6,36,29.6,42.9c5.5,2.1,11.2,3.1,16.8,3.1c12.7,0,25.1-5.3,34.1-15.2l38.6-42.4l27.7,40.1
			c7.5,10.8,19.8,17.3,33.1,17.3s25.6-6.5,33.1-17.3l27.7-40.1l38.6,42.4c12.9,14.2,32.9,18.9,50.9,12c18-6.9,29.6-23.7,29.6-42.9
			v-198.2C304.7-510.2,293.1-527.1,275.1-534L275.1-534z"/>
	</g>
</g>
</svg>
