<svg xmlns="http://www.w3.org/2000/svg" width="146.169" height="50.743" viewBox="0 0 146.169 50.743"><path d="M8.41,36.24a12.5,12.5,0,0,0,2.566,4.2,11.04,11.04,0,0,0,3.884,2.673,12.672,12.672,0,0,0,4.882.926,12.081,12.081,0,0,0,4.811-.962,11.834,11.834,0,0,0,3.92-2.708,12.278,12.278,0,0,0,2.6-4.169A15.063,15.063,0,0,0,32,30.788V0h7.483V49.888H32.071V45.255a17.181,17.181,0,0,1-5.88,4.062,18.633,18.633,0,0,1-7.3,1.425,19.778,19.778,0,0,1-7.448-1.39A17.438,17.438,0,0,1,5.452,45.4a18.658,18.658,0,0,1-3.991-6.165A21.135,21.135,0,0,1,0,31.215V0H7.483V30.788A15.354,15.354,0,0,0,8.41,36.24Z" fill="#fff"/><path d="M293.721,0V18.173a19.063,19.063,0,0,1,5.773-3.955,17.306,17.306,0,0,1,7.127-1.461,18.794,18.794,0,0,1,7.483,1.5,18.853,18.853,0,0,1,10.12,10.12,18.618,18.618,0,0,1,1.5,7.412,18.363,18.363,0,0,1-1.5,7.376A18.946,18.946,0,0,1,314.1,49.246a18.794,18.794,0,0,1-7.483,1.5,17.554,17.554,0,0,1-7.162-1.461,18.933,18.933,0,0,1-5.808-3.955v4.561h-7.127V0Zm.82,36.7a12.4,12.4,0,0,0,2.673,3.991A12.9,12.9,0,0,0,301.2,43.4a12.134,12.134,0,0,0,4.918,1,11.957,11.957,0,0,0,4.846-1,12.467,12.467,0,0,0,3.956-2.708A13.218,13.218,0,0,0,317.6,36.7a12.132,12.132,0,0,0,1-4.917,12.386,12.386,0,0,0-1-4.953,13.1,13.1,0,0,0-2.672-4.027,12,12,0,0,0-3.956-2.672,12.529,12.529,0,0,0-13.683,2.672,12.784,12.784,0,0,0-2.708,4.027,12.386,12.386,0,0,0-1,4.953A12.518,12.518,0,0,0,294.541,36.7Z" transform="translate(-241.34)" fill="#fff"/><path d="M553.23,92.966a19.39,19.39,0,0,1,3.92-6.022,18.856,18.856,0,0,1,20.6-4.169,17.243,17.243,0,0,1,5.773,3.955,18.081,18.081,0,0,1,3.777,5.986,20.433,20.433,0,0,1,1.354,7.519v2.352H559.074a12.185,12.185,0,0,0,1.425,4.1,12.355,12.355,0,0,0,2.672,3.278,12.215,12.215,0,0,0,3.635,2.174,11.87,11.87,0,0,0,4.312.784,12.469,12.469,0,0,0,10.477-5.345l5.2,3.848a18.986,18.986,0,0,1-15.679,7.768,20.071,20.071,0,0,1-7.59-1.425,18.484,18.484,0,0,1-6.129-3.991,18.937,18.937,0,0,1-4.1-6.022,19.446,19.446,0,0,1-.072-14.788Zm10.013-2.815a12.147,12.147,0,0,0-4.027,6.735h22.164a11.789,11.789,0,0,0-3.955-6.735,11.2,11.2,0,0,0-14.182,0Z" transform="translate(-464.788 -68.521)" fill="#fff"/><path d="M820.237,93.253a9.65,9.65,0,0,0-2.281,6.771v20.668h-7.2V84.344h7.127v4.49a10.131,10.131,0,0,1,3.528-3.492,9.983,9.983,0,0,1,5.167-1.283h2.494v6.7h-2.993A7.564,7.564,0,0,0,820.237,93.253Z" transform="translate(-682.905 -70.803)" fill="#fff"/></svg>